<svg viewBox="0 0 24 24" xmlns="http://www.w3.org/2000/svg" xml:space="preserve" style="fill-rule:evenodd;clip-rule:evenodd;stroke-linejoin:round;stroke-miterlimit:2"><path style="fill:none;fill-rule:nonzero" d="M0 0h24v24H0z"/><path d="M14.04 3v2H5v14h14V9.896h2V19c0 1.1-.9 2-2 2H5a2 2 0 0 1-2-2V5a2 2 0 0 1 2-2h9.04ZM12 12c-1.66 0-3 1.34-3 3s1.34 3 3 3 3-1.34 3-3-1.34-3-3-3ZM6 6h9v4H6V6Z" style="fill:#66bb6a;fill-rule:nonzero"/><path style="fill:none;fill-rule:nonzero" d="M0 0h24v24H0z" transform="matrix(.52357 0 0 .51241 12.882 -1.141)"/><path d="M19 13h-6v6h-2v-6H5v-2h6V5h2v6h6v2Z" style="fill:#66bb6a;fill-rule:nonzero" transform="matrix(.52357 0 0 .51241 12.882 -1.141)"/></svg>